# xmcd
#
# Track frame offsets:
#	150
#	15562
#	29202
#	48680
#	64407
#	80995
#	99935
#	115537
#	131672
#	149427
#	167097
#	180030
#	194980
#	210665
#	225402
#	239292
#	254810
#	271547
#	290840
#	300052
#	314842
#
# Disc length: 4352
#
# Revision: 1
# Processed by: cddbd v1.5.1PL0 Copyright (c) Steve Scherf et al.
# Submitted via: VisiTrax 2.9.5.180 - For more info visit www.synapsa.com
# Normalized: r0:DSETVAR1
#
DISCID=3910fe15
DTITLE=Various Artist - CDX 136 May 1996
DYEAR=1996
DGENRE=
TTITLE0=Michael Omartian/Vince Gill/ Chet Atkins/Alison Krauss/Bela Fleck/Paul Franklin - Atlanta Reel
TTITLE1=Blackhawk - Big guitar
TTITLE2=Hal Ketchum - Hang in there superman
TTITLE3=Marcus Hummon - Honky tonk Mona Lisa
TTITLE4=Gretchen Peters - I ain't ever satisfied
TTITLE5=Steve Azar - I never stopped lovin' you
TTITLE6=Pam Tillis - It's lonely out here
TTITLE7=Rick Trevino - Learning as you go
TTITLE8=Ty Herndon - Living in a moment
TTITLE9=Neil Diamond/Buffy Lawson - Marry me
TTITLE10=Nitty Gritty Dirt Band - Maybe baby
TTITLE11=M C Potts - Put me out of my misery
TTITLE12=Jeff Foxworthy/Alan Jackson - Redneck games
TTITLE13=Lonestar - Runnin' away with my heart
TTITLE14=Frazier River - Tangled up in Texas
TTITLE15=Tammy Graham - Tell me again
TTITLE16=Chely Wright - The love he left behind
TTITLE17=Doug Supernaw - You still got me
TTITLE18=Junior Brown - Gotta get up every morning
TTITLE19=Junior Brown - Joe the singing janitor
TTITLE20=Junior Brown - Venom wearin' denim
EXTD=
EXTT0=
EXTT1=
EXTT2=
EXTT3=
EXTT4=
EXTT5=
EXTT6=
EXTT7=
EXTT8=
EXTT9=
EXTT10=
EXTT11=
EXTT12=
EXTT13=
EXTT14=
EXTT15=
EXTT16=
EXTT17=
EXTT18=
EXTT19=
EXTT20=
PLAYORDER=
